<?xml version="1.0" encoding="utf-8"?>
<!-- Generator: Adobe Illustrator 23.0.0, SVG Export Plug-In . SVG Version: 6.00 Build 0)  -->
<svg version="1.1" id="Layer_1" xmlns="http://www.w3.org/2000/svg" xmlns:xlink="http://www.w3.org/1999/xlink" x="0px" y="0px"
	 viewBox="0 0 1621.3 360" style="enable-background:new 0 0 1621.3 360;" xml:space="preserve">
<style type="text/css">
	.st0{fill:#FFFFFF;}
</style>
<g>
	<path class="st0" d="M180,0C80.5,0,0,80.5,0,180s80.5,180,180,180s180-80.5,180-180S279.5,0,180,0z M284.1,253
		c-9.3,8.7-22.2,12.7-38.2,12c-20.1-1-40.6-23.9-47.1-49.6c-0.6,3.3-1.2,7-1.7,10.6c-3.3,20.3-6.6,41.1-14.3,51.8
		c-1.4,1.9-3.7,2.9-5.8,2.9c-1.5,0-3.1-0.4-4.2-1.4c-3.3-2.3-3.9-7-1.5-10.2c5-6.8,8.1-23.2,10.6-39c-23.9,23.8-53.7,40.4-83,37.1
		c-23.2-2.7-34.2-14.5-39.4-23.9c-9.5-17.6-7.5-42.5,5.4-68.2c15.3-30.1,48.3-49.1,73.6-42.3c8.3,2.3,27.2,10.8,25.1,42.7
		c-0.2,4.1-3.7,7-7.7,6.8c-4.1-0.2-7-3.7-6.8-7.7c0.8-10.6-1.4-24.1-14.5-27.8c-16.6-4.6-43.5,8.3-56.8,34.8
		C67,202.4,64.9,222.9,72,236.2c5,9.3,14.5,14.9,28.2,16.4c23.2,2.7,56.8-12,85.8-48.9c0.4-2.7,1.2-10.4,1.9-18.2
		c1.5-15.6,3.5-36.9,6-54.5c3.9-26.7,10.6-71.5,36.5-71.5c6,0,11,2.5,14.5,7.3c11.8,16.2,1.2,52.5-1.2,59.7
		c-2.7,8.3-7.1,18.3-12.2,28.4c1.2,0,2.3,0,3.1,0.2c9.5,1.4,17,9.7,18.3,20.7c1.2,8.7-3.3,17-12.4,22.6c-8.1,5-20.1,7.9-29.4,6.2
		c1.2,10.4,5.6,21.2,12.4,30.1c7.1,9.3,15.8,15.3,22.8,15.6c12,0.6,21.1-1.9,27.2-7.7c7-6.4,8.5-15.3,8.5-17.4
		c0-4.1,3.3-7.1,7.3-7.1s7.1,3.3,7.1,7.1C297,229.6,294.7,243,284.1,253z"/>
	<path class="st0" d="M213,189.7c0,0.2-0.2,0.2-0.2,0.4c2.7,1.2,11.2,1.2,18.9-3.1c2.9-1.5,7.5-4.8,7-9.1c-0.6-4.4-3.1-7.7-6.2-8.3
		C228.3,168.8,220.6,173.6,213,189.7z"/>
	<path class="st0" d="M233.3,75.3c-0.8-1-1.4-1.4-2.7-1.4c-13.5,0-20.1,44.4-22.2,59.1c-1.9,13.5-3.7,29.5-5,43.1
		c9.3-15.6,21.6-38.6,26.7-54.3C236.4,102.2,237.9,81.7,233.3,75.3z"/>
</g>
<g>
	<path class="st0" d="M535,137c10.4,8.3,17.1,19.6,20.2,33.9h-31.9c-2.4-5.8-6-10.3-10.8-13.6c-4.9-3.3-10.7-4.9-17.4-4.9
		c-8.8,0-15.9,3.2-21.3,9.7c-5.4,6.5-8.1,15.1-8.1,25.9c0,10.8,2.7,19.4,8.1,25.8c5.4,6.4,12.5,9.6,21.3,9.6
		c6.7,0,12.5-1.6,17.4-4.9c4.9-3.3,8.5-7.8,10.8-13.4h31.9c-3.1,14.1-9.8,25.4-20.2,33.8c-10.4,8.4-23.5,12.6-39.4,12.6
		c-12.1,0-22.7-2.7-31.9-8c-9.2-5.3-16.3-12.8-21.2-22.5c-5-9.6-7.5-20.6-7.5-33c0-12.3,2.5-23.3,7.5-33c5-9.6,12.1-17.1,21.2-22.5
		c9.2-5.3,19.8-8,31.9-8C511.5,124.5,524.6,128.6,535,137z"/>
	<path class="st0" d="M616.9,156.2c5.9-3.5,12.4-5.3,19.3-5.3v32.3h-8.6c-8,0-14.2,1.7-18.6,5.1c-4.4,3.4-6.6,9.2-6.6,17.3v44.8
		h-30.2V152h30.2v18.5C606.1,164.5,610.9,159.7,616.9,156.2z"/>
	<path class="st0" d="M741.4,206.6h-68.2c0.4,7.4,2.2,12.7,5.6,16c3.4,3.2,7.8,4.8,13,4.8c4.5,0,8.2-1.1,11.1-3.4
		c2.9-2.2,4.9-5.1,5.8-8.6h31.9c-1.3,6.9-4.1,13.1-8.5,18.6c-4.4,5.5-9.9,9.8-16.6,12.9c-6.7,3.1-14.2,4.7-22.4,4.7
		c-9.6,0-18.2-2-25.7-6.1c-7.5-4.1-13.3-9.9-17.5-17.5c-4.2-7.6-6.3-16.6-6.3-26.8c0-10.3,2.1-19.3,6.3-26.9
		c4.2-7.6,10-13.4,17.5-17.5c7.5-4.1,16.1-6.1,25.7-6.1c9.8,0,18.3,2,25.7,6c7.4,4,13.1,9.6,17.2,16.8c4.1,7.2,6.1,15.5,6.1,25
		C742.3,201,742,203.7,741.4,206.6z M706.6,179.4c-3.6-3.2-8-4.8-13.3-4.8c-5.5,0-10.1,1.6-13.8,4.9c-3.6,3.3-5.7,8.1-6.2,14.5h38.4
		C711.9,187.5,710.2,182.6,706.6,179.4z"/>
	<path class="st0" d="M814.8,155.8c5.4,3.4,9.4,8.1,12,13.9V152h30v98.4h-30v-17.8c-2.6,5.9-6.6,10.5-12,13.9
		c-5.4,3.4-11.9,5.1-19.4,5.1c-8.1,0-15.4-2-21.8-6.1c-6.4-4.1-11.5-9.9-15.2-17.5c-3.7-7.6-5.6-16.6-5.6-26.8
		c0-10.3,1.9-19.3,5.6-26.9c3.7-7.6,8.8-13.4,15.2-17.5c6.4-4.1,13.7-6.1,21.8-6.1C802.9,150.7,809.4,152.4,814.8,155.8z
		 M789.5,183.5c-3.9,4.2-5.9,10.1-5.9,17.6c0,7.5,2,13.4,5.9,17.6c3.9,4.2,9.1,6.3,15.6,6.3c6.3,0,11.5-2.2,15.6-6.5
		c4.1-4.3,6.1-10.2,6.1-17.5c0-7.4-2-13.3-6.1-17.5c-4.1-4.3-9.3-6.4-15.6-6.4C798.6,177.2,793.4,179.3,789.5,183.5z"/>
	<path class="st0" d="M933.3,224.4v25.9h-13.6c-11.5,0-20.5-2.8-26.9-8.6c-6.4-5.7-9.6-15.1-9.6-28.3v-36.1H870V152h13.2v-24.2h30.2
		V152h19.7v25.4h-19.7V214c0,3.9,0.8,6.6,2.4,8.1c1.6,1.5,4.3,2.3,8,2.3H933.3z"/>
	<path class="st0" d="M952.3,112.9c3.3-3,7.6-4.5,13-4.5c5.4,0,9.8,1.5,13,4.5c3.3,3,4.9,6.8,4.9,11.4c0,4.5-1.6,8.2-4.9,11.2
		c-3.3,3-7.6,4.5-13,4.5c-5.4,0-9.8-1.5-13-4.5c-3.3-3-4.9-6.7-4.9-11.2C947.4,119.7,949,115.9,952.3,112.9z M980.4,152v98.4h-30.2
		V152H980.4z"/>
	<path class="st0" d="M1046.7,220.9L1068,152h32.1l-34.9,98.4h-37.4L992.9,152h32.1L1046.7,220.9z"/>
	<path class="st0" d="M1205.2,206.6h-68.2c0.4,7.4,2.2,12.7,5.6,16c3.4,3.2,7.8,4.8,13,4.8c4.5,0,8.2-1.1,11.1-3.4
		c2.9-2.2,4.9-5.1,5.8-8.6h31.9c-1.3,6.9-4.1,13.1-8.5,18.6c-4.4,5.5-9.9,9.8-16.6,12.9c-6.7,3.1-14.2,4.7-22.4,4.7
		c-9.6,0-18.2-2-25.7-6.1c-7.5-4.1-13.3-9.9-17.5-17.5c-4.2-7.6-6.3-16.6-6.3-26.8c0-10.3,2.1-19.3,6.3-26.9
		c4.2-7.6,10-13.4,17.5-17.5c7.5-4.1,16.1-6.1,25.7-6.1c9.8,0,18.3,2,25.7,6c7.4,4,13.1,9.6,17.2,16.8c4.1,7.2,6.1,15.5,6.1,25
		C1206.1,201,1205.8,203.7,1205.2,206.6z M1170.4,179.4c-3.6-3.2-8-4.8-13.3-4.8c-5.5,0-10.1,1.6-13.8,4.9
		c-3.6,3.3-5.7,8.1-6.2,14.5h38.4C1175.7,187.5,1173.9,182.6,1170.4,179.4z"/>
	<path class="st0" d="M1315.7,186.7l50.3,63.7h-36.5l-42.3-55.9v55.9H1257V125.7h30.2v54.8l42.7-54.8h36.1L1315.7,186.7z"/>
	<path class="st0" d="M1380.8,112.9c3.3-3,7.6-4.5,13-4.5c5.4,0,9.8,1.5,13,4.5c3.3,3,4.9,6.8,4.9,11.4c0,4.5-1.6,8.2-4.9,11.2
		c-3.3,3-7.6,4.5-13,4.5c-5.4,0-9.8-1.5-13-4.5c-3.3-3-4.9-6.7-4.9-11.2C1375.9,119.7,1377.5,115.9,1380.8,112.9z M1408.8,152v98.4
		h-30.2V152H1408.8z"/>
	<path class="st0" d="M1486.4,155.8c5.4,3.4,9.3,8.1,11.8,13.9v-49.9h30.2v130.5h-30.2v-17.8c-2.5,5.9-6.4,10.5-11.8,13.9
		c-5.4,3.4-11.9,5.1-19.4,5.1c-8.1,0-15.4-2-21.8-6.1c-6.4-4.1-11.5-9.9-15.2-17.5c-3.7-7.6-5.6-16.6-5.6-26.8
		c0-10.3,1.9-19.3,5.6-26.9c3.7-7.6,8.8-13.4,15.2-17.5c6.4-4.1,13.7-6.1,21.8-6.1C1474.5,150.7,1481,152.4,1486.4,155.8z
		 M1461.1,183.5c-3.9,4.2-5.9,10.1-5.9,17.6c0,7.5,2,13.4,5.9,17.6c3.9,4.2,9.1,6.3,15.6,6.3c6.3,0,11.5-2.2,15.6-6.5
		c4.1-4.3,6.1-10.2,6.1-17.5c0-7.4-2-13.3-6.1-17.5c-4.1-4.3-9.3-6.4-15.6-6.4C1470.3,177.2,1465.1,179.3,1461.1,183.5z"/>
	<path class="st0" d="M1575.8,225.1h45.5v25.2h-78.5v-23.8l42.3-49.6h-41.6v-25h76v23.8L1575.8,225.1z"/>
</g>
</svg>
